<mxfile host="app.diagrams.net" modified="2023-03-16T01:13:40.971Z" agent="5.0 (Windows NT 10.0; Win64; x64) AppleWebKit/537.36 (KHTML, like Gecko) Chrome/110.0.0.0 Safari/537.36 Edg/110.0.1587.69" etag="SKGDfWIB9w-OmQcVFy7e" version="21.0.6" type="github">
  <diagram name="Página-1" id="HUEpe9vl9iNSM6uPdXP3">
    <mxGraphModel dx="833" dy="484" grid="1" gridSize="10" guides="1" tooltips="1" connect="1" arrows="1" fold="1" page="1" pageScale="1" pageWidth="827" pageHeight="1169" math="0" shadow="0">
      <root>
        <mxCell id="0" />
        <mxCell id="1" parent="0" />
        <mxCell id="p5AdVyvq9ZG_E4T3OseQ-1" value="" style="swimlane;startSize=0;" vertex="1" parent="1">
          <mxGeometry x="260" y="40" width="220" height="320" as="geometry">
            <mxRectangle x="260" y="40" width="50" height="40" as="alternateBounds" />
          </mxGeometry>
        </mxCell>
        <mxCell id="p5AdVyvq9ZG_E4T3OseQ-5" value="Llenar registro" style="ellipse;whiteSpace=wrap;html=1;" vertex="1" parent="p5AdVyvq9ZG_E4T3OseQ-1">
          <mxGeometry x="10" y="50" width="120" height="40" as="geometry" />
        </mxCell>
        <mxCell id="p5AdVyvq9ZG_E4T3OseQ-6" value="Registro" style="text;html=1;strokeColor=none;fillColor=none;align=center;verticalAlign=middle;whiteSpace=wrap;rounded=0;" vertex="1" parent="p5AdVyvq9ZG_E4T3OseQ-1">
          <mxGeometry x="76" width="60" height="30" as="geometry" />
        </mxCell>
        <mxCell id="p5AdVyvq9ZG_E4T3OseQ-7" value="Validar el registro" style="ellipse;whiteSpace=wrap;html=1;" vertex="1" parent="p5AdVyvq9ZG_E4T3OseQ-1">
          <mxGeometry x="80" y="100" width="120" height="50" as="geometry" />
        </mxCell>
        <mxCell id="p5AdVyvq9ZG_E4T3OseQ-8" value="Ingresar a la cuenta" style="ellipse;whiteSpace=wrap;html=1;" vertex="1" parent="p5AdVyvq9ZG_E4T3OseQ-1">
          <mxGeometry x="10" y="260" width="110" height="40" as="geometry" />
        </mxCell>
        <mxCell id="p5AdVyvq9ZG_E4T3OseQ-9" value="Dar de alta la cuenta" style="ellipse;whiteSpace=wrap;html=1;" vertex="1" parent="p5AdVyvq9ZG_E4T3OseQ-1">
          <mxGeometry x="80" y="200" width="120" height="50" as="geometry" />
        </mxCell>
        <mxCell id="p5AdVyvq9ZG_E4T3OseQ-11" value="&amp;lt;include&amp;gt;" style="endArrow=open;endSize=12;dashed=1;html=1;rounded=0;exitX=0.5;exitY=1;exitDx=0;exitDy=0;entryX=0.5;entryY=0;entryDx=0;entryDy=0;" edge="1" parent="p5AdVyvq9ZG_E4T3OseQ-1" source="p5AdVyvq9ZG_E4T3OseQ-7" target="p5AdVyvq9ZG_E4T3OseQ-9">
          <mxGeometry width="160" relative="1" as="geometry">
            <mxPoint x="60" y="160" as="sourcePoint" />
            <mxPoint x="220" y="160" as="targetPoint" />
          </mxGeometry>
        </mxCell>
        <mxCell id="p5AdVyvq9ZG_E4T3OseQ-2" value="Usuario" style="shape=umlActor;verticalLabelPosition=bottom;verticalAlign=top;html=1;outlineConnect=0;" vertex="1" parent="1">
          <mxGeometry x="160" y="100" width="30" height="60" as="geometry" />
        </mxCell>
        <mxCell id="p5AdVyvq9ZG_E4T3OseQ-3" value="VFast" style="shape=umlActor;verticalLabelPosition=bottom;verticalAlign=top;html=1;outlineConnect=0;" vertex="1" parent="1">
          <mxGeometry x="530" y="100" width="30" height="60" as="geometry" />
        </mxCell>
        <mxCell id="p5AdVyvq9ZG_E4T3OseQ-16" value="" style="endArrow=classic;html=1;rounded=0;entryX=0;entryY=0.5;entryDx=0;entryDy=0;" edge="1" parent="1" target="p5AdVyvq9ZG_E4T3OseQ-5">
          <mxGeometry width="50" height="50" relative="1" as="geometry">
            <mxPoint x="200" y="120" as="sourcePoint" />
            <mxPoint x="420" y="170" as="targetPoint" />
          </mxGeometry>
        </mxCell>
        <mxCell id="p5AdVyvq9ZG_E4T3OseQ-17" value="" style="endArrow=classic;html=1;rounded=0;" edge="1" parent="1" target="p5AdVyvq9ZG_E4T3OseQ-8">
          <mxGeometry width="50" height="50" relative="1" as="geometry">
            <mxPoint x="200" y="160" as="sourcePoint" />
            <mxPoint x="420" y="170" as="targetPoint" />
          </mxGeometry>
        </mxCell>
        <mxCell id="p5AdVyvq9ZG_E4T3OseQ-18" value="" style="endArrow=classic;html=1;rounded=0;entryX=1;entryY=0.5;entryDx=0;entryDy=0;" edge="1" parent="1" target="p5AdVyvq9ZG_E4T3OseQ-7">
          <mxGeometry width="50" height="50" relative="1" as="geometry">
            <mxPoint x="520" y="120" as="sourcePoint" />
            <mxPoint x="420" y="170" as="targetPoint" />
          </mxGeometry>
        </mxCell>
        <mxCell id="p5AdVyvq9ZG_E4T3OseQ-19" value="" style="endArrow=classic;html=1;rounded=0;" edge="1" parent="1" target="p5AdVyvq9ZG_E4T3OseQ-9">
          <mxGeometry width="50" height="50" relative="1" as="geometry">
            <mxPoint x="520" y="160" as="sourcePoint" />
            <mxPoint x="420" y="170" as="targetPoint" />
          </mxGeometry>
        </mxCell>
        <mxCell id="p5AdVyvq9ZG_E4T3OseQ-21" value="" style="swimlane;startSize=0;" vertex="1" parent="1">
          <mxGeometry x="260" y="520" width="220" height="240" as="geometry">
            <mxRectangle x="260" y="40" width="50" height="40" as="alternateBounds" />
          </mxGeometry>
        </mxCell>
        <mxCell id="p5AdVyvq9ZG_E4T3OseQ-22" value="Colocar datos del usuario" style="ellipse;whiteSpace=wrap;html=1;" vertex="1" parent="p5AdVyvq9ZG_E4T3OseQ-21">
          <mxGeometry x="10" y="50" width="120" height="40" as="geometry" />
        </mxCell>
        <mxCell id="p5AdVyvq9ZG_E4T3OseQ-23" value="Login" style="text;html=1;strokeColor=none;fillColor=none;align=center;verticalAlign=middle;whiteSpace=wrap;rounded=0;" vertex="1" parent="p5AdVyvq9ZG_E4T3OseQ-21">
          <mxGeometry x="76" width="60" height="30" as="geometry" />
        </mxCell>
        <mxCell id="p5AdVyvq9ZG_E4T3OseQ-24" value="Validar datos" style="ellipse;whiteSpace=wrap;html=1;" vertex="1" parent="p5AdVyvq9ZG_E4T3OseQ-21">
          <mxGeometry x="80" y="100" width="120" height="50" as="geometry" />
        </mxCell>
        <mxCell id="p5AdVyvq9ZG_E4T3OseQ-25" value="Ingresar a la cuenta" style="ellipse;whiteSpace=wrap;html=1;" vertex="1" parent="p5AdVyvq9ZG_E4T3OseQ-21">
          <mxGeometry x="15" y="180" width="110" height="40" as="geometry" />
        </mxCell>
        <mxCell id="p5AdVyvq9ZG_E4T3OseQ-28" value="Usuario" style="shape=umlActor;verticalLabelPosition=bottom;verticalAlign=top;html=1;outlineConnect=0;" vertex="1" parent="1">
          <mxGeometry x="170" y="570" width="30" height="60" as="geometry" />
        </mxCell>
        <mxCell id="p5AdVyvq9ZG_E4T3OseQ-29" value="VFast" style="shape=umlActor;verticalLabelPosition=bottom;verticalAlign=top;html=1;outlineConnect=0;" vertex="1" parent="1">
          <mxGeometry x="530" y="580" width="30" height="60" as="geometry" />
        </mxCell>
        <mxCell id="p5AdVyvq9ZG_E4T3OseQ-30" value="" style="endArrow=classic;html=1;rounded=0;entryX=0;entryY=0.5;entryDx=0;entryDy=0;" edge="1" parent="1" target="p5AdVyvq9ZG_E4T3OseQ-22">
          <mxGeometry width="50" height="50" relative="1" as="geometry">
            <mxPoint x="200" y="600" as="sourcePoint" />
            <mxPoint x="420" y="650" as="targetPoint" />
          </mxGeometry>
        </mxCell>
        <mxCell id="p5AdVyvq9ZG_E4T3OseQ-31" value="" style="endArrow=classic;html=1;rounded=0;" edge="1" parent="1" target="p5AdVyvq9ZG_E4T3OseQ-25">
          <mxGeometry width="50" height="50" relative="1" as="geometry">
            <mxPoint x="200" y="640" as="sourcePoint" />
            <mxPoint x="420" y="650" as="targetPoint" />
          </mxGeometry>
        </mxCell>
        <mxCell id="p5AdVyvq9ZG_E4T3OseQ-32" value="" style="endArrow=classic;html=1;rounded=0;entryX=1;entryY=0.5;entryDx=0;entryDy=0;" edge="1" parent="1" target="p5AdVyvq9ZG_E4T3OseQ-24">
          <mxGeometry width="50" height="50" relative="1" as="geometry">
            <mxPoint x="520" y="600" as="sourcePoint" />
            <mxPoint x="420" y="650" as="targetPoint" />
          </mxGeometry>
        </mxCell>
        <mxCell id="p5AdVyvq9ZG_E4T3OseQ-34" value="Precondiciones&lt;br&gt;- Tener los datos (Usuario)&lt;br&gt;-Verificar los datos (Sistema)&lt;br&gt;&lt;br&gt;Postcondiciones&lt;br&gt;- Ingresar a la cuenta (Usuario)&lt;br&gt;- Permitir el acceso (Usuario)" style="text;html=1;strokeColor=none;fillColor=none;align=center;verticalAlign=middle;whiteSpace=wrap;rounded=0;shadow=1;" vertex="1" parent="1">
          <mxGeometry x="160" y="370" width="190" height="90" as="geometry" />
        </mxCell>
        <mxCell id="p5AdVyvq9ZG_E4T3OseQ-48" value="Precondiciones&lt;br&gt;- Tener cuenta (Usuario)&lt;br&gt;- Verificar los datos (Sistema)&lt;br&gt;&lt;br&gt;Postcondiciones&amp;nbsp;&lt;br&gt;- Ingresar a la cuenta (Usuario)&lt;br&gt;- Permitir el acceso (Usuario)" style="text;html=1;strokeColor=none;fillColor=none;align=center;verticalAlign=middle;whiteSpace=wrap;rounded=0;shadow=1;" vertex="1" parent="1">
          <mxGeometry x="160" y="760" width="180" height="110" as="geometry" />
        </mxCell>
        <mxCell id="p5AdVyvq9ZG_E4T3OseQ-49" value="" style="swimlane;startSize=0;" vertex="1" parent="1">
          <mxGeometry x="260" y="920" width="220" height="260" as="geometry">
            <mxRectangle x="260" y="40" width="50" height="40" as="alternateBounds" />
          </mxGeometry>
        </mxCell>
        <mxCell id="p5AdVyvq9ZG_E4T3OseQ-50" value="Seleccionar el método de restablecimiento" style="ellipse;whiteSpace=wrap;html=1;" vertex="1" parent="p5AdVyvq9ZG_E4T3OseQ-49">
          <mxGeometry x="10" y="50" width="130" height="40" as="geometry" />
        </mxCell>
        <mxCell id="p5AdVyvq9ZG_E4T3OseQ-51" value="Recuperar Contraseña" style="text;html=1;strokeColor=none;fillColor=none;align=center;verticalAlign=middle;whiteSpace=wrap;rounded=0;" vertex="1" parent="p5AdVyvq9ZG_E4T3OseQ-49">
          <mxGeometry x="76" width="64" height="30" as="geometry" />
        </mxCell>
        <mxCell id="p5AdVyvq9ZG_E4T3OseQ-52" value="Correo electrónico&amp;nbsp;&lt;br&gt;Google&lt;br&gt;SMS" style="ellipse;whiteSpace=wrap;html=1;" vertex="1" parent="p5AdVyvq9ZG_E4T3OseQ-49">
          <mxGeometry x="76" y="100" width="130" height="50" as="geometry" />
        </mxCell>
        <mxCell id="p5AdVyvq9ZG_E4T3OseQ-53" value="Colocar la nueva contraseña" style="ellipse;whiteSpace=wrap;html=1;" vertex="1" parent="p5AdVyvq9ZG_E4T3OseQ-49">
          <mxGeometry x="10" y="209" width="110" height="40" as="geometry" />
        </mxCell>
        <mxCell id="p5AdVyvq9ZG_E4T3OseQ-61" value="&amp;lt;EXTEND&amp;gt;" style="endArrow=open;endSize=12;dashed=1;html=1;rounded=0;exitX=0.1;exitY=0.886;exitDx=0;exitDy=0;exitPerimeter=0;entryX=0;entryY=0.5;entryDx=0;entryDy=0;" edge="1" parent="p5AdVyvq9ZG_E4T3OseQ-49" source="p5AdVyvq9ZG_E4T3OseQ-50" target="p5AdVyvq9ZG_E4T3OseQ-52">
          <mxGeometry width="160" relative="1" as="geometry">
            <mxPoint x="60" y="180" as="sourcePoint" />
            <mxPoint x="220" y="180" as="targetPoint" />
            <Array as="points">
              <mxPoint x="20" y="120" />
            </Array>
          </mxGeometry>
        </mxCell>
        <mxCell id="p5AdVyvq9ZG_E4T3OseQ-63" value="Otorgar el permiso a establecer contraseña" style="ellipse;whiteSpace=wrap;html=1;" vertex="1" parent="p5AdVyvq9ZG_E4T3OseQ-49">
          <mxGeometry x="76" y="159" width="130" height="50" as="geometry" />
        </mxCell>
        <mxCell id="p5AdVyvq9ZG_E4T3OseQ-54" value="Usuario" style="shape=umlActor;verticalLabelPosition=bottom;verticalAlign=top;html=1;outlineConnect=0;" vertex="1" parent="1">
          <mxGeometry x="170" y="970" width="30" height="60" as="geometry" />
        </mxCell>
        <mxCell id="p5AdVyvq9ZG_E4T3OseQ-55" value="VFast" style="shape=umlActor;verticalLabelPosition=bottom;verticalAlign=top;html=1;outlineConnect=0;" vertex="1" parent="1">
          <mxGeometry x="530" y="980" width="30" height="60" as="geometry" />
        </mxCell>
        <mxCell id="p5AdVyvq9ZG_E4T3OseQ-56" value="" style="endArrow=classic;html=1;rounded=0;entryX=0;entryY=0.5;entryDx=0;entryDy=0;" edge="1" parent="1" target="p5AdVyvq9ZG_E4T3OseQ-50">
          <mxGeometry width="50" height="50" relative="1" as="geometry">
            <mxPoint x="200" y="1000" as="sourcePoint" />
            <mxPoint x="420" y="1050" as="targetPoint" />
          </mxGeometry>
        </mxCell>
        <mxCell id="p5AdVyvq9ZG_E4T3OseQ-57" value="" style="endArrow=classic;html=1;rounded=0;" edge="1" parent="1" target="p5AdVyvq9ZG_E4T3OseQ-53">
          <mxGeometry width="50" height="50" relative="1" as="geometry">
            <mxPoint x="200" y="1040" as="sourcePoint" />
            <mxPoint x="420" y="1050" as="targetPoint" />
          </mxGeometry>
        </mxCell>
        <mxCell id="p5AdVyvq9ZG_E4T3OseQ-59" value="Precondiciones&lt;br&gt;- Haber seleccionado &quot;Olvide contraseña&quot; (Usuario)&lt;br&gt;&lt;br&gt;Postcondiciones&amp;nbsp;&lt;br&gt;- Cambiar / Actualizar contraseña (Usuario)&lt;br&gt;- Aceptar y mandar confirmación (Usuario)" style="text;html=1;strokeColor=none;fillColor=none;align=center;verticalAlign=middle;whiteSpace=wrap;rounded=0;shadow=1;" vertex="1" parent="1">
          <mxGeometry x="160" y="1180" width="240" height="110" as="geometry" />
        </mxCell>
        <mxCell id="p5AdVyvq9ZG_E4T3OseQ-64" value="" style="endArrow=classic;html=1;rounded=0;entryX=0.946;entryY=0.28;entryDx=0;entryDy=0;entryPerimeter=0;" edge="1" parent="1" target="p5AdVyvq9ZG_E4T3OseQ-63">
          <mxGeometry width="50" height="50" relative="1" as="geometry">
            <mxPoint x="520" y="1040" as="sourcePoint" />
            <mxPoint x="476" y="1055" as="targetPoint" />
          </mxGeometry>
        </mxCell>
        <mxCell id="p5AdVyvq9ZG_E4T3OseQ-77" value="" style="swimlane;startSize=0;" vertex="1" parent="1">
          <mxGeometry x="260" y="1360" width="220" height="320" as="geometry">
            <mxRectangle x="260" y="40" width="50" height="40" as="alternateBounds" />
          </mxGeometry>
        </mxCell>
        <mxCell id="p5AdVyvq9ZG_E4T3OseQ-78" value="Enviar solicitud del lugar" style="ellipse;whiteSpace=wrap;html=1;" vertex="1" parent="p5AdVyvq9ZG_E4T3OseQ-77">
          <mxGeometry x="10" y="50" width="130" height="40" as="geometry" />
        </mxCell>
        <mxCell id="p5AdVyvq9ZG_E4T3OseQ-79" value="Usuarios Lugares" style="text;html=1;strokeColor=none;fillColor=none;align=center;verticalAlign=middle;whiteSpace=wrap;rounded=0;" vertex="1" parent="p5AdVyvq9ZG_E4T3OseQ-77">
          <mxGeometry x="76" width="64" height="30" as="geometry" />
        </mxCell>
        <mxCell id="p5AdVyvq9ZG_E4T3OseQ-81" value="Subir información&amp;nbsp;" style="ellipse;whiteSpace=wrap;html=1;" vertex="1" parent="p5AdVyvq9ZG_E4T3OseQ-77">
          <mxGeometry x="10" y="160" width="110" height="40" as="geometry" />
        </mxCell>
        <mxCell id="p5AdVyvq9ZG_E4T3OseQ-83" value="Aceptar solicitud" style="ellipse;whiteSpace=wrap;html=1;" vertex="1" parent="p5AdVyvq9ZG_E4T3OseQ-77">
          <mxGeometry x="76" y="100" width="130" height="50" as="geometry" />
        </mxCell>
        <mxCell id="p5AdVyvq9ZG_E4T3OseQ-90" value="Aparecer en recomendados" style="ellipse;whiteSpace=wrap;html=1;" vertex="1" parent="p5AdVyvq9ZG_E4T3OseQ-77">
          <mxGeometry x="10" y="210" width="110" height="40" as="geometry" />
        </mxCell>
        <mxCell id="p5AdVyvq9ZG_E4T3OseQ-92" value="Pago" style="ellipse;whiteSpace=wrap;html=1;" vertex="1" parent="p5AdVyvq9ZG_E4T3OseQ-77">
          <mxGeometry x="86" y="260" width="110" height="40" as="geometry" />
        </mxCell>
        <mxCell id="p5AdVyvq9ZG_E4T3OseQ-93" value="&amp;lt;&amp;lt;Include&amp;gt;&amp;gt;" style="endArrow=open;endSize=12;dashed=1;html=1;rounded=0;entryX=0;entryY=0.5;entryDx=0;entryDy=0;exitX=0;exitY=1;exitDx=0;exitDy=0;" edge="1" parent="p5AdVyvq9ZG_E4T3OseQ-77" source="p5AdVyvq9ZG_E4T3OseQ-90" target="p5AdVyvq9ZG_E4T3OseQ-92">
          <mxGeometry width="160" relative="1" as="geometry">
            <mxPoint x="60" y="250" as="sourcePoint" />
            <mxPoint x="220" y="250" as="targetPoint" />
            <Array as="points">
              <mxPoint x="30" y="280" />
            </Array>
          </mxGeometry>
        </mxCell>
        <mxCell id="p5AdVyvq9ZG_E4T3OseQ-84" value="Usuario" style="shape=umlActor;verticalLabelPosition=bottom;verticalAlign=top;html=1;outlineConnect=0;" vertex="1" parent="1">
          <mxGeometry x="170" y="1410" width="30" height="60" as="geometry" />
        </mxCell>
        <mxCell id="p5AdVyvq9ZG_E4T3OseQ-85" value="VFast" style="shape=umlActor;verticalLabelPosition=bottom;verticalAlign=top;html=1;outlineConnect=0;" vertex="1" parent="1">
          <mxGeometry x="530" y="1420" width="30" height="60" as="geometry" />
        </mxCell>
        <mxCell id="p5AdVyvq9ZG_E4T3OseQ-86" value="" style="endArrow=classic;html=1;rounded=0;entryX=0;entryY=0.5;entryDx=0;entryDy=0;" edge="1" parent="1" target="p5AdVyvq9ZG_E4T3OseQ-78">
          <mxGeometry width="50" height="50" relative="1" as="geometry">
            <mxPoint x="200" y="1440" as="sourcePoint" />
            <mxPoint x="420" y="1490" as="targetPoint" />
          </mxGeometry>
        </mxCell>
        <mxCell id="p5AdVyvq9ZG_E4T3OseQ-87" value="" style="endArrow=classic;html=1;rounded=0;" edge="1" parent="1" target="p5AdVyvq9ZG_E4T3OseQ-81">
          <mxGeometry width="50" height="50" relative="1" as="geometry">
            <mxPoint x="200" y="1480" as="sourcePoint" />
            <mxPoint x="420" y="1490" as="targetPoint" />
          </mxGeometry>
        </mxCell>
        <mxCell id="p5AdVyvq9ZG_E4T3OseQ-88" value="Precondiciones&lt;br&gt;- Tener datos del lugar (Usuario)&lt;br&gt;- Pagar (Usuario&lt;br&gt;&lt;br&gt;" style="text;html=1;strokeColor=none;fillColor=none;align=center;verticalAlign=middle;whiteSpace=wrap;rounded=0;shadow=1;" vertex="1" parent="1">
          <mxGeometry x="160" y="1684" width="240" height="70" as="geometry" />
        </mxCell>
        <mxCell id="p5AdVyvq9ZG_E4T3OseQ-89" value="" style="endArrow=classic;html=1;rounded=0;entryX=0.946;entryY=0.28;entryDx=0;entryDy=0;entryPerimeter=0;" edge="1" parent="1" target="p5AdVyvq9ZG_E4T3OseQ-83">
          <mxGeometry width="50" height="50" relative="1" as="geometry">
            <mxPoint x="520" y="1480" as="sourcePoint" />
            <mxPoint x="476" y="1495" as="targetPoint" />
          </mxGeometry>
        </mxCell>
        <mxCell id="p5AdVyvq9ZG_E4T3OseQ-91" value="" style="endArrow=classic;html=1;rounded=0;entryX=0;entryY=0.5;entryDx=0;entryDy=0;" edge="1" parent="1" target="p5AdVyvq9ZG_E4T3OseQ-90">
          <mxGeometry width="50" height="50" relative="1" as="geometry">
            <mxPoint x="200" y="1490" as="sourcePoint" />
            <mxPoint x="302" y="1534" as="targetPoint" />
          </mxGeometry>
        </mxCell>
      </root>
    </mxGraphModel>
  </diagram>
</mxfile>
